<svg xmlns="http://www.w3.org/2000/svg" style="display: none;">
  <defs>
    <!-- Success Icon -->
    <symbol id="icon-success" viewBox="0 0 24 24">
      <circle cx="12" cy="12" r="10" fill="#27ae60" opacity="0.1"/>
      <circle cx="12" cy="12" r="10" fill="none" stroke="#27ae60" stroke-width="2"/>
      <path d="M7 12.5 L10 15.5 L17 8.5" fill="none" stroke="#27ae60" stroke-width="2" stroke-linecap="round" stroke-linejoin="round"/>
    </symbol>
    
    <!-- Error Icon -->
    <symbol id="icon-error" viewBox="0 0 24 24">
      <circle cx="12" cy="12" r="10" fill="#e74c3c" opacity="0.1"/>
      <circle cx="12" cy="12" r="10" fill="none" stroke="#e74c3c" stroke-width="2"/>
      <line x1="8" y1="8" x2="16" y2="16" stroke="#e74c3c" stroke-width="2" stroke-linecap="round"/>
      <line x1="16" y1="8" x2="8" y2="16" stroke="#e74c3c" stroke-width="2" stroke-linecap="round"/>
    </symbol>
    
    <!-- Warning Icon -->
    <symbol id="icon-warning" viewBox="0 0 24 24">
      <path d="M12 2 L2 20 L22 20 Z" fill="#f39c12" opacity="0.1"/>
      <path d="M12 2 L2 20 L22 20 Z" fill="none" stroke="#f39c12" stroke-width="2" stroke-linejoin="round"/>
      <line x1="12" y1="9" x2="12" y2="13" stroke="#f39c12" stroke-width="2" stroke-linecap="round"/>
      <circle cx="12" cy="16" r="1" fill="#f39c12"/>
    </symbol>
    
    <!-- Info Icon -->
    <symbol id="icon-info" viewBox="0 0 24 24">
      <circle cx="12" cy="12" r="10" fill="#3498db" opacity="0.1"/>
      <circle cx="12" cy="12" r="10" fill="none" stroke="#3498db" stroke-width="2"/>
      <circle cx="12" cy="8" r="1" fill="#3498db"/>
      <line x1="12" y1="11" x2="12" y2="16" stroke="#3498db" stroke-width="2" stroke-linecap="round"/>
    </symbol>
    
    <!-- Camera Icon -->
    <symbol id="icon-camera" viewBox="0 0 24 24">
      <rect x="2" y="6" width="20" height="14" rx="2" fill="none" stroke="currentColor" stroke-width="2"/>
      <circle cx="12" cy="13" r="4" fill="none" stroke="currentColor" stroke-width="2"/>
      <path d="M7 6 L9 3 L15 3 L17 6" fill="none" stroke="currentColor" stroke-width="2"/>
      <circle cx="18" cy="9" r="1" fill="currentColor"/>
    </symbol>
    
    <!-- Download Icon -->
    <symbol id="icon-download" viewBox="0 0 24 24">
      <path d="M12 2 L12 15" stroke="currentColor" stroke-width="2" stroke-linecap="round"/>
      <path d="M7 11 L12 16 L17 11" fill="none" stroke="currentColor" stroke-width="2" stroke-linecap="round" stroke-linejoin="round"/>
      <path d="M3 20 L21 20" stroke="currentColor" stroke-width="2" stroke-linecap="round"/>
    </symbol>
    
    <!-- Settings Icon -->
    <symbol id="icon-settings" viewBox="0 0 24 24">
      <circle cx="12" cy="12" r="3" fill="none" stroke="currentColor" stroke-width="2"/>
      <path d="M12 1 L12 6 M12 18 L12 23 M4.22 4.22 L7.76 7.76 M16.24 16.24 L19.78 19.78 M1 12 L6 12 M18 12 L23 12 M4.22 19.78 L7.76 16.24 M16.24 7.76 L19.78 4.22" 
            stroke="currentColor" stroke-width="2" stroke-linecap="round"/>
    </symbol>
    
    <!-- Refresh Icon -->
    <symbol id="icon-refresh" viewBox="0 0 24 24">
      <path d="M4 12 A8 8 0 0 1 12 4 L12 4" fill="none" stroke="currentColor" stroke-width="2" stroke-linecap="round"/>
      <path d="M20 12 A8 8 0 0 1 12 20 L12 20" fill="none" stroke="currentColor" stroke-width="2" stroke-linecap="round"/>
      <path d="M12 4 L16 0 L16 8 Z" fill="currentColor"/>
      <path d="M12 20 L8 24 L8 16 Z" fill="currentColor"/>
    </symbol>
  </defs>
</svg>